<?xml version="1.0" standalone="no"?>
<!DOCTYPE svg PUBLIC "-//W3C//DTD SVG 20010904//EN"
 "http://www.w3.org/TR/2001/REC-SVG-20010904/DTD/svg10.dtd">
<svg version="1.0" xmlns="http://www.w3.org/2000/svg" 
 width="512.000000pt" height="512.000000pt" viewBox="0 0 512.000000 512.000000"
 preserveAspectRatio="xMidYMid meet">

<g transform="translate(0.000000,512.000000) scale(0.100000,-0.100000)"
fill="gray" stroke="none">
<path d="M2220 4424 c-274 -34 -522 -125 -741 -273 -436 -292 -685 -731 -706
-1241 -18 -460 147 -889 467 -1210 487 -489 1237 -609 1855 -297 59 29 196
117 270 171 20 15 42 -6 475 -439 l455 -455 112 112 113 113 -456 456 -456
456 25 29 c38 45 131 192 166 261 310 618 189 1367 -299 1853 -237 236 -525
387 -850 446 -83 15 -360 27 -430 18z m395 -339 c516 -106 898 -487 1012
-1007 25 -115 25 -380 0 -495 -26 -124 -64 -227 -123 -343 -130 -250 -312
-428 -569 -555 -370 -182 -780 -180 -1145 6 -353 180 -592 498 -677 899 -24
117 -24 363 0 480 54 253 162 462 332 639 207 216 468 350 761 390 95 14 313
6 409 -14z"/>
</g>
</svg>
