<?xml version="1.0" standalone="no"?>
<!DOCTYPE svg PUBLIC "-//W3C//DTD SVG 20010904//EN"
 "http://www.w3.org/TR/2001/REC-SVG-20010904/DTD/svg10.dtd">
<svg version="1.0" xmlns="http://www.w3.org/2000/svg"
 width="512.000000pt" height="512.000000pt" viewBox="0 0 512.000000 512.000000"
 preserveAspectRatio="xMidYMid meet">

<g transform="translate(0.000000,512.000000) scale(0.100000,-0.100000)"
fill="#fff" stroke="none">
<path d="M3099 4027 c-24 -13 -57 -43 -74 -66 -29 -42 -30 -45 -33 -187 l-3
-144 -1202 -2 -1202 -3 -40 -22 c-77 -41 -115 -105 -115 -193 0 -84 53 -161
132 -194 33 -14 175 -16 1233 -16 l1195 0 0 -130 c0 -174 20 -223 115 -273 39
-21 51 -22 499 -25 532 -3 537 -3 604 73 50 57 62 104 62 244 l0 111 128 0
c141 0 184 13 234 66 75 80 77 215 5 292 -49 53 -92 66 -234 70 l-131 4 -4
131 c-4 142 -17 185 -70 234 -56 53 -61 53 -576 53 l-479 0 -44 -23z m741
-612 l0 -215 -215 0 -215 0 0 208 c0 115 3 212 7 215 3 4 100 7 215 7 l208 0
0 -215z"/>
<path d="M1008 2338 c-21 -5 -58 -28 -82 -50 -60 -52 -76 -105 -76 -255 l0
-113 -125 0 c-138 0 -178 -10 -228 -58 -83 -79 -90 -219 -14 -300 49 -53 92
-66 234 -70 l131 -4 4 -131 c3 -112 7 -138 25 -173 27 -51 72 -90 121 -104 25
-8 194 -10 518 -8 l481 3 39 27 c21 15 50 44 64 65 23 34 25 46 28 180 l3 143
1202 2 1202 3 45 25 c119 67 147 225 57 327 -18 20 -50 44 -72 54 -38 18 -101
19 -1237 19 l-1198 0 0 130 c0 174 -20 223 -115 273 -39 22 -50 22 -505 24
-286 1 -479 -3 -502 -9z m700 -630 l-3 -213 -212 -3 -213 -2 0 215 0 215 215
0 215 0 -2 -212z"/>
</g>
</svg>
